<mxfile host="app.diagrams.net" modified="2024-02-06T20:36:34.968Z" agent="Mozilla/5.0 (Macintosh; Intel Mac OS X 10_15_7) AppleWebKit/537.36 (KHTML, like Gecko) Chrome/121.0.0.0 Safari/537.36" etag="ln_dNiPWI49XAIzCo8NI" version="23.1.1" type="device" pages="4">
  <diagram name="Page-1" id="U8Yg5hV7oTDklsjKXxel">
    <mxGraphModel dx="954" dy="640" grid="1" gridSize="10" guides="1" tooltips="1" connect="1" arrows="1" fold="1" page="1" pageScale="1" pageWidth="850" pageHeight="1100" math="0" shadow="0">
      <root>
        <mxCell id="0" />
        <mxCell id="1" parent="0" />
        <mxCell id="Cur1h4V7ekF-xrbxtsgF-20" value="&#xa;  &#xa;    &#xa;      &#xa;        &#xa;        &#xa;        &#xa;          &#xa;        &#xa;        &#xa;          &#xa;        &#xa;        &#xa;          &#xa;        &#xa;        &#xa;          &#xa;        &#xa;        &#xa;          &#xa;        &#xa;        &#xa;          &#xa;        &#xa;        &#xa;          &#xa;            &#xa;            &#xa;          &#xa;        &#xa;        &#xa;          &#xa;            &#xa;            &#xa;            &#xa;              &#xa;            &#xa;          &#xa;        &#xa;        &#xa;          &#xa;        &#xa;        &#xa;          &#xa;            &#xa;            &#xa;            &#xa;              &#xa;            &#xa;          &#xa;        &#xa;        &#xa;          &#xa;        &#xa;        &#xa;          &#xa;        &#xa;        &#xa;          &#xa;        &#xa;        &#xa;          &#xa;            &#xa;            &#xa;            &#xa;              &#xa;            &#xa;          &#xa;        &#xa;        &#xa;          &#xa;            &#xa;            &#xa;            &#xa;              &#xa;            &amp;lt;/" style="text;whiteSpace=wrap;html=1;" vertex="1" parent="1">
          <mxGeometry width="40" height="1120" as="geometry" />
        </mxCell>
        <mxCell id="Cur1h4V7ekF-xrbxtsgF-21" value="&#xa;  &#xa;    &#xa;      &#xa;        &#xa;        &#xa;        &#xa;          &#xa;        &#xa;        &#xa;          &#xa;        &#xa;        &#xa;          &#xa;        &#xa;        &#xa;          &#xa;        &#xa;        &#xa;          &#xa;        &#xa;        &#xa;          &#xa;        &#xa;        &#xa;          &#xa;            &#xa;            &#xa;          &#xa;        &#xa;        &#xa;          &#xa;            &#xa;            &#xa;            &#xa;              &#xa;            &#xa;          &#xa;        &#xa;        &#xa;          &#xa;        &#xa;        &#xa;          &#xa;            &#xa;            &#xa;            &#xa;              &#xa;            &#xa;          &#xa;        &#xa;        &#xa;          &#xa;        &#xa;        &#xa;          &#xa;        &#xa;        &#xa;          &#xa;        &#xa;        &#xa;          &#xa;            &#xa;            &#xa;            &#xa;              &#xa;            &#xa;          &#xa;        &#xa;        &#xa;          &#xa;            &#xa;            &#xa;            &#xa;              &#xa;            &amp;lt;/" style="text;whiteSpace=wrap;html=1;" vertex="1" parent="1">
          <mxGeometry width="40" height="1120" as="geometry" />
        </mxCell>
        <mxCell id="rfEI_5YRxpr9Me88pcGO-2" value="&#xa;  &#xa;    &#xa;    &#xa;      &#xa;      &#xa;        &#xa;          &#xa;            &#xa;            Start&#xa;          &#xa;          &#xa;            &#xa;            Female?&#xa;          &#xa;          &#xa;            &#xa;            &#xa;              &#xa;                &#xa;                  &#xa;                  Yes&#xa;                &#xa;                &#xa;                  &#xa;                &#xa;                &#xa;                  &#xa;                  &#xa;                    &#xa;                      &#xa;                        &#xa;                        Enjoys playing football?&#xa;                      &#xa;                      &#xa;                        &#xa;                        Yes&#xa;                      &#xa;                      &#xa;                        &#xa;                        &#xa;                          &#xa;                            &#xa;                              &#xa;                              Loves singing?&#xa;                            &#xa;                            &#xa;                              &#xa;                              Yes&#xa;                            &#xa;                            &#xa;                              &#xa;                              &#xa;                                &#xa;                                  &#xa;                                    &#xa;                                    Recommendation: Join a mixed sports and choir club&#xa;                                  &#xa;                                " style="text;whiteSpace=wrap;html=1;" vertex="1" parent="1">
          <mxGeometry width="320" height="860" as="geometry" />
        </mxCell>
      </root>
    </mxGraphModel>
  </diagram>
  <diagram id="6IJHfZV2pNXKmo7fq_2-" name="Page-2">
    <mxGraphModel dx="954" dy="640" grid="1" gridSize="10" guides="1" tooltips="1" connect="1" arrows="1" fold="1" page="1" pageScale="1" pageWidth="850" pageHeight="1100" math="0" shadow="0">
      <root>
        <mxCell id="0" />
        <mxCell id="1" parent="0" />
        <mxCell id="iZEDK0FyphPmifZQWmas-1" value="" style="rounded=0;html=1;jettySize=auto;orthogonalLoop=1;fontSize=11;endArrow=block;endFill=0;endSize=8;strokeWidth=1;shadow=0;labelBackgroundColor=none;edgeStyle=orthogonalEdgeStyle;" edge="1" parent="1" source="iZEDK0FyphPmifZQWmas-2">
          <mxGeometry relative="1" as="geometry">
            <mxPoint x="220" y="170" as="targetPoint" />
          </mxGeometry>
        </mxCell>
        <mxCell id="iZEDK0FyphPmifZQWmas-2" value="Start" style="rounded=1;whiteSpace=wrap;html=1;fontSize=12;glass=0;strokeWidth=1;shadow=0;" vertex="1" parent="1">
          <mxGeometry x="160" y="80" width="120" height="40" as="geometry" />
        </mxCell>
        <mxCell id="iZEDK0FyphPmifZQWmas-3" value="Website Navigation" style="rounded=1;whiteSpace=wrap;html=1;fontSize=12;glass=0;strokeWidth=1;shadow=0;" vertex="1" parent="1">
          <mxGeometry x="160" y="170" width="120" height="40" as="geometry" />
        </mxCell>
        <mxCell id="iZEDK0FyphPmifZQWmas-4" value="Portfolio &amp; Pricing" style="rounded=1;whiteSpace=wrap;html=1;fontSize=12;glass=0;strokeWidth=1;shadow=0;" vertex="1" parent="1">
          <mxGeometry x="160" y="251" width="120" height="40" as="geometry" />
        </mxCell>
        <mxCell id="iZEDK0FyphPmifZQWmas-5" value="Sessions Overview" style="rounded=1;whiteSpace=wrap;html=1;fontSize=12;glass=0;strokeWidth=1;shadow=0;" vertex="1" parent="1">
          <mxGeometry x="160" y="332" width="120" height="40" as="geometry" />
        </mxCell>
        <mxCell id="iZEDK0FyphPmifZQWmas-6" value="Inquiry Form (with Photo Upload)" style="rounded=1;whiteSpace=wrap;html=1;fontSize=12;glass=0;strokeWidth=1;shadow=0;" vertex="1" parent="1">
          <mxGeometry x="160" y="413" width="120" height="40" as="geometry" />
        </mxCell>
        <mxCell id="iZEDK0FyphPmifZQWmas-7" value="Calendar &amp; Booking" style="rounded=1;whiteSpace=wrap;html=1;fontSize=12;glass=0;strokeWidth=1;shadow=0;" vertex="1" parent="1">
          <mxGeometry x="160" y="494" width="120" height="40" as="geometry" />
        </mxCell>
        <mxCell id="iZEDK0FyphPmifZQWmas-8" value="Payment" style="rounded=1;whiteSpace=wrap;html=1;fontSize=12;glass=0;strokeWidth=1;shadow=0;" vertex="1" parent="1">
          <mxGeometry x="160" y="575" width="120" height="40" as="geometry" />
        </mxCell>
        <mxCell id="iZEDK0FyphPmifZQWmas-9" value="Confirmation Email" style="rounded=1;whiteSpace=wrap;html=1;fontSize=12;glass=0;strokeWidth=1;shadow=0;" vertex="1" parent="1">
          <mxGeometry x="160" y="656" width="120" height="40" as="geometry" />
        </mxCell>
        <mxCell id="iZEDK0FyphPmifZQWmas-10" value="Pre-Session Communication" style="rounded=1;whiteSpace=wrap;html=1;fontSize=12;glass=0;strokeWidth=1;shadow=0;" vertex="1" parent="1">
          <mxGeometry x="160" y="737" width="120" height="40" as="geometry" />
        </mxCell>
        <mxCell id="iZEDK0FyphPmifZQWmas-11" value="Photography Session" style="rounded=1;whiteSpace=wrap;html=1;fontSize=12;glass=0;strokeWidth=1;shadow=0;" vertex="1" parent="1">
          <mxGeometry x="160" y="818" width="120" height="40" as="geometry" />
        </mxCell>
        <mxCell id="iZEDK0FyphPmifZQWmas-12" value="Delivery &amp; Feedback" style="rounded=1;whiteSpace=wrap;html=1;fontSize=12;glass=0;strokeWidth=1;shadow=0;" vertex="1" parent="1">
          <mxGeometry x="160" y="899" width="120" height="40" as="geometry" />
        </mxCell>
        <mxCell id="iZEDK0FyphPmifZQWmas-13" value="Future Bookings (Repeat Flow)" style="rounded=1;whiteSpace=wrap;html=1;fontSize=12;glass=0;strokeWidth=1;shadow=0;" vertex="1" parent="1">
          <mxGeometry x="160" y="980" width="120" height="40" as="geometry" />
        </mxCell>
        <mxCell id="iZEDK0FyphPmifZQWmas-14" value="End" style="rounded=1;whiteSpace=wrap;html=1;fontSize=12;glass=0;strokeWidth=1;shadow=0;" vertex="1" parent="1">
          <mxGeometry x="160" y="1061" width="120" height="40" as="geometry" />
        </mxCell>
        <mxCell id="iZEDK0FyphPmifZQWmas-15" value="" style="rounded=0;html=1;jettySize=auto;orthogonalLoop=1;fontSize=11;endArrow=block;endFill=0;endSize=8;strokeWidth=1;shadow=0;labelBackgroundColor=none;edgeStyle=orthogonalEdgeStyle;" edge="1" parent="1" source="iZEDK0FyphPmifZQWmas-3" target="iZEDK0FyphPmifZQWmas-4">
          <mxGeometry relative="1" as="geometry">
            <mxPoint x="220" y="211" as="sourcePoint" />
            <mxPoint x="220" y="251" as="targetPoint" />
          </mxGeometry>
        </mxCell>
        <mxCell id="iZEDK0FyphPmifZQWmas-16" value="" style="rounded=0;html=1;jettySize=auto;orthogonalLoop=1;fontSize=11;endArrow=block;endFill=0;endSize=8;strokeWidth=1;shadow=0;labelBackgroundColor=none;edgeStyle=orthogonalEdgeStyle;" edge="1" parent="1" source="iZEDK0FyphPmifZQWmas-4" target="iZEDK0FyphPmifZQWmas-5">
          <mxGeometry relative="1" as="geometry">
            <mxPoint x="220" y="291" as="sourcePoint" />
            <mxPoint x="220" y="331" as="targetPoint" />
          </mxGeometry>
        </mxCell>
        <mxCell id="iZEDK0FyphPmifZQWmas-17" value="" style="rounded=0;html=1;jettySize=auto;orthogonalLoop=1;fontSize=11;endArrow=block;endFill=0;endSize=8;strokeWidth=1;shadow=0;labelBackgroundColor=none;edgeStyle=orthogonalEdgeStyle;" edge="1" parent="1" source="iZEDK0FyphPmifZQWmas-5" target="iZEDK0FyphPmifZQWmas-6">
          <mxGeometry relative="1" as="geometry">
            <mxPoint x="220" y="371" as="sourcePoint" />
            <mxPoint x="220" y="411" as="targetPoint" />
          </mxGeometry>
        </mxCell>
        <mxCell id="iZEDK0FyphPmifZQWmas-18" value="" style="rounded=0;html=1;jettySize=auto;orthogonalLoop=1;fontSize=11;endArrow=block;endFill=0;endSize=8;strokeWidth=1;shadow=0;labelBackgroundColor=none;edgeStyle=orthogonalEdgeStyle;" edge="1" parent="1" source="iZEDK0FyphPmifZQWmas-6" target="iZEDK0FyphPmifZQWmas-7">
          <mxGeometry relative="1" as="geometry">
            <mxPoint x="220" y="451" as="sourcePoint" />
            <mxPoint x="220" y="491" as="targetPoint" />
          </mxGeometry>
        </mxCell>
        <mxCell id="iZEDK0FyphPmifZQWmas-19" value="" style="rounded=0;html=1;jettySize=auto;orthogonalLoop=1;fontSize=11;endArrow=block;endFill=0;endSize=8;strokeWidth=1;shadow=0;labelBackgroundColor=none;edgeStyle=orthogonalEdgeStyle;" edge="1" parent="1" source="iZEDK0FyphPmifZQWmas-7" target="iZEDK0FyphPmifZQWmas-8">
          <mxGeometry relative="1" as="geometry">
            <mxPoint x="220" y="531" as="sourcePoint" />
            <mxPoint x="220" y="571" as="targetPoint" />
          </mxGeometry>
        </mxCell>
        <mxCell id="iZEDK0FyphPmifZQWmas-20" value="" style="rounded=0;html=1;jettySize=auto;orthogonalLoop=1;fontSize=11;endArrow=block;endFill=0;endSize=8;strokeWidth=1;shadow=0;labelBackgroundColor=none;edgeStyle=orthogonalEdgeStyle;" edge="1" parent="1" source="iZEDK0FyphPmifZQWmas-8" target="iZEDK0FyphPmifZQWmas-9">
          <mxGeometry relative="1" as="geometry">
            <mxPoint x="220" y="611" as="sourcePoint" />
            <mxPoint x="220" y="651" as="targetPoint" />
          </mxGeometry>
        </mxCell>
        <mxCell id="iZEDK0FyphPmifZQWmas-21" value="" style="rounded=0;html=1;jettySize=auto;orthogonalLoop=1;fontSize=11;endArrow=block;endFill=0;endSize=8;strokeWidth=1;shadow=0;labelBackgroundColor=none;edgeStyle=orthogonalEdgeStyle;" edge="1" parent="1" source="iZEDK0FyphPmifZQWmas-9" target="iZEDK0FyphPmifZQWmas-10">
          <mxGeometry relative="1" as="geometry">
            <mxPoint x="220" y="691" as="sourcePoint" />
            <mxPoint x="220" y="731" as="targetPoint" />
          </mxGeometry>
        </mxCell>
        <mxCell id="iZEDK0FyphPmifZQWmas-22" value="" style="rounded=0;html=1;jettySize=auto;orthogonalLoop=1;fontSize=11;endArrow=block;endFill=0;endSize=8;strokeWidth=1;shadow=0;labelBackgroundColor=none;edgeStyle=orthogonalEdgeStyle;" edge="1" parent="1" source="iZEDK0FyphPmifZQWmas-10" target="iZEDK0FyphPmifZQWmas-11">
          <mxGeometry relative="1" as="geometry">
            <mxPoint x="220" y="771" as="sourcePoint" />
            <mxPoint x="220" y="811" as="targetPoint" />
          </mxGeometry>
        </mxCell>
        <mxCell id="iZEDK0FyphPmifZQWmas-23" value="" style="rounded=0;html=1;jettySize=auto;orthogonalLoop=1;fontSize=11;endArrow=block;endFill=0;endSize=8;strokeWidth=1;shadow=0;labelBackgroundColor=none;edgeStyle=orthogonalEdgeStyle;" edge="1" parent="1" source="iZEDK0FyphPmifZQWmas-11" target="iZEDK0FyphPmifZQWmas-12">
          <mxGeometry relative="1" as="geometry">
            <mxPoint x="220" y="851" as="sourcePoint" />
            <mxPoint x="220" y="891" as="targetPoint" />
          </mxGeometry>
        </mxCell>
        <mxCell id="iZEDK0FyphPmifZQWmas-24" value="" style="rounded=0;html=1;jettySize=auto;orthogonalLoop=1;fontSize=11;endArrow=block;endFill=0;endSize=8;strokeWidth=1;shadow=0;labelBackgroundColor=none;edgeStyle=orthogonalEdgeStyle;" edge="1" parent="1" source="iZEDK0FyphPmifZQWmas-12" target="iZEDK0FyphPmifZQWmas-13">
          <mxGeometry relative="1" as="geometry">
            <mxPoint x="220" y="931" as="sourcePoint" />
            <mxPoint x="220" y="971" as="targetPoint" />
          </mxGeometry>
        </mxCell>
        <mxCell id="iZEDK0FyphPmifZQWmas-25" value="" style="rounded=0;html=1;jettySize=auto;orthogonalLoop=1;fontSize=11;endArrow=block;endFill=0;endSize=8;strokeWidth=1;shadow=0;labelBackgroundColor=none;edgeStyle=orthogonalEdgeStyle;" edge="1" parent="1" source="iZEDK0FyphPmifZQWmas-13" target="iZEDK0FyphPmifZQWmas-14">
          <mxGeometry relative="1" as="geometry">
            <mxPoint x="220" y="1011" as="sourcePoint" />
            <mxPoint x="220" y="1051" as="targetPoint" />
          </mxGeometry>
        </mxCell>
      </root>
    </mxGraphModel>
  </diagram>
  <diagram id="Af_Yxd5JLYghTF_3t_Nl" name="Page-3">
    <mxGraphModel dx="954" dy="640" grid="1" gridSize="10" guides="1" tooltips="1" connect="1" arrows="1" fold="1" page="1" pageScale="1" pageWidth="850" pageHeight="1100" math="0" shadow="0">
      <root>
        <mxCell id="0" />
        <mxCell id="1" parent="0" />
        <mxCell id="Fbeu4va7ZuN7fIxcZtHg-1" value="Start" style="ellipse;whiteSpace=wrap;html=1;" vertex="1" parent="1">
          <mxGeometry x="350" y="200" width="90" height="40" as="geometry" />
        </mxCell>
        <mxCell id="Fbeu4va7ZuN7fIxcZtHg-2" value="" style="endArrow=classic;html=1;rounded=0;" edge="1" parent="1">
          <mxGeometry width="50" height="50" relative="1" as="geometry">
            <mxPoint x="394.5" y="240" as="sourcePoint" />
            <mxPoint x="394.5" y="320" as="targetPoint" />
            <Array as="points">
              <mxPoint x="394.5" y="240" />
            </Array>
          </mxGeometry>
        </mxCell>
        <mxCell id="Fbeu4va7ZuN7fIxcZtHg-3" value="I enjoy playing football" style="rounded=1;whiteSpace=wrap;html=1;" vertex="1" parent="1">
          <mxGeometry x="520" y="330" width="120" height="60" as="geometry" />
        </mxCell>
        <mxCell id="Fbeu4va7ZuN7fIxcZtHg-4" value="I&#39;m female" style="rhombus;whiteSpace=wrap;html=1;" vertex="1" parent="1">
          <mxGeometry x="355" y="320" width="80" height="80" as="geometry" />
        </mxCell>
        <mxCell id="Fbeu4va7ZuN7fIxcZtHg-5" value="" style="endArrow=classic;html=1;rounded=0;" edge="1" parent="1">
          <mxGeometry width="50" height="50" relative="1" as="geometry">
            <mxPoint x="435" y="360" as="sourcePoint" />
            <mxPoint x="520" y="360" as="targetPoint" />
            <Array as="points">
              <mxPoint x="480" y="360" />
            </Array>
          </mxGeometry>
        </mxCell>
        <mxCell id="Fbeu4va7ZuN7fIxcZtHg-6" value="" style="endArrow=classic;html=1;rounded=0;" edge="1" parent="1">
          <mxGeometry width="50" height="50" relative="1" as="geometry">
            <mxPoint x="394.5" y="400" as="sourcePoint" />
            <mxPoint x="394.5" y="480" as="targetPoint" />
            <Array as="points">
              <mxPoint x="394.5" y="400" />
            </Array>
          </mxGeometry>
        </mxCell>
        <mxCell id="Fbeu4va7ZuN7fIxcZtHg-7" value="I love singing" style="rounded=1;whiteSpace=wrap;html=1;" vertex="1" parent="1">
          <mxGeometry x="335" y="480" width="120" height="60" as="geometry" />
        </mxCell>
        <mxCell id="Fbeu4va7ZuN7fIxcZtHg-8" value="" style="endArrow=classic;html=1;rounded=0;" edge="1" parent="1">
          <mxGeometry width="50" height="50" relative="1" as="geometry">
            <mxPoint x="394.5" y="540" as="sourcePoint" />
            <mxPoint x="394.5" y="620" as="targetPoint" />
            <Array as="points">
              <mxPoint x="394.5" y="540" />
            </Array>
          </mxGeometry>
        </mxCell>
        <mxCell id="Fbeu4va7ZuN7fIxcZtHg-9" value="End" style="ellipse;whiteSpace=wrap;html=1;" vertex="1" parent="1">
          <mxGeometry x="342.5" y="620" width="105" height="50" as="geometry" />
        </mxCell>
        <mxCell id="Fbeu4va7ZuN7fIxcZtHg-10" value="" style="endArrow=classic;html=1;rounded=0;exitX=0.5;exitY=1;exitDx=0;exitDy=0;entryX=0.5;entryY=0;entryDx=0;entryDy=0;" edge="1" parent="1" source="Fbeu4va7ZuN7fIxcZtHg-3" target="Fbeu4va7ZuN7fIxcZtHg-9">
          <mxGeometry width="50" height="50" relative="1" as="geometry">
            <mxPoint x="550" y="500" as="sourcePoint" />
            <mxPoint x="400" y="610" as="targetPoint" />
            <Array as="points">
              <mxPoint x="580" y="620" />
            </Array>
          </mxGeometry>
        </mxCell>
      </root>
    </mxGraphModel>
  </diagram>
  <diagram id="esn3gPO2JGHy8qATkSmL" name="Page-4">
    <mxGraphModel dx="954" dy="640" grid="1" gridSize="10" guides="1" tooltips="1" connect="1" arrows="1" fold="1" page="1" pageScale="1" pageWidth="850" pageHeight="1100" math="0" shadow="0">
      <root>
        <mxCell id="0" />
        <mxCell id="1" parent="0" />
        <mxCell id="Nxzr9lt63k4-66FtO5DA-1" value="Start" style="rounded=0;whiteSpace=wrap;html=1;" vertex="1" connectable="0" parent="1">
          <mxGeometry x="210" y="20" width="80" height="40" as="geometry" />
        </mxCell>
        <mxCell id="Nxzr9lt63k4-66FtO5DA-2" value="If you go left" style="rounded=0;whiteSpace=wrap;html=1;" vertex="1" connectable="0" parent="1">
          <mxGeometry x="200" y="110" width="100" height="40" as="geometry" />
        </mxCell>
        <mxCell id="Nxzr9lt63k4-66FtO5DA-3" style="edgeStyle=orthogonalEdgeStyle;rounded=0;orthogonalLoop=1;jettySize=auto;html=1;" edge="1" parent="1" source="Nxzr9lt63k4-66FtO5DA-1" target="Nxzr9lt63k4-66FtO5DA-2">
          <mxGeometry relative="1" as="geometry" />
        </mxCell>
        <mxCell id="Nxzr9lt63k4-66FtO5DA-4" value="You meet the nice wizard" style="rounded=0;whiteSpace=wrap;html=1;" vertex="1" connectable="0" parent="1">
          <mxGeometry x="200" y="200" width="100" height="40" as="geometry" />
        </mxCell>
        <mxCell id="Nxzr9lt63k4-66FtO5DA-5" style="edgeStyle=orthogonalEdgeStyle;rounded=0;orthogonalLoop=1;jettySize=auto;html=1;" edge="1" parent="1" source="Nxzr9lt63k4-66FtO5DA-2" target="Nxzr9lt63k4-66FtO5DA-4">
          <mxGeometry relative="1" as="geometry" />
        </mxCell>
        <mxCell id="Nxzr9lt63k4-66FtO5DA-6" value="But if you go right" style="rounded=0;whiteSpace=wrap;html=1;" vertex="1" connectable="0" parent="1">
          <mxGeometry x="200" y="300" width="100" height="40" as="geometry" />
        </mxCell>
        <mxCell id="Nxzr9lt63k4-66FtO5DA-7" style="edgeStyle=orthogonalEdgeStyle;rounded=0;orthogonalLoop=1;jettySize=auto;html=1;" edge="1" parent="1" source="Nxzr9lt63k4-66FtO5DA-2" target="Nxzr9lt63k4-66FtO5DA-6">
          <mxGeometry relative="1" as="geometry" />
        </mxCell>
        <mxCell id="Nxzr9lt63k4-66FtO5DA-8" value="You meet the mean witch" style="rounded=0;whiteSpace=wrap;html=1;" vertex="1" connectable="0" parent="1">
          <mxGeometry x="200" y="390" width="100" height="40" as="geometry" />
        </mxCell>
        <mxCell id="Nxzr9lt63k4-66FtO5DA-9" style="edgeStyle=orthogonalEdgeStyle;rounded=0;orthogonalLoop=1;jettySize=auto;html=1;" edge="1" parent="1" source="Nxzr9lt63k4-66FtO5DA-6" target="Nxzr9lt63k4-66FtO5DA-8">
          <mxGeometry relative="1" as="geometry" />
        </mxCell>
        <mxCell id="Nxzr9lt63k4-66FtO5DA-10" value="End" style="rounded=0;whiteSpace=wrap;html=1;" vertex="1" connectable="0" parent="1">
          <mxGeometry x="210" y="480" width="80" height="40" as="geometry" />
        </mxCell>
        <mxCell id="Nxzr9lt63k4-66FtO5DA-11" style="edgeStyle=orthogonalEdgeStyle;rounded=0;orthogonalLoop=1;jettySize=auto;html=1;" edge="1" parent="1" source="Nxzr9lt63k4-66FtO5DA-4" target="Nxzr9lt63k4-66FtO5DA-10">
          <mxGeometry relative="1" as="geometry" />
        </mxCell>
        <mxCell id="Nxzr9lt63k4-66FtO5DA-12" style="edgeStyle=orthogonalEdgeStyle;rounded=0;orthogonalLoop=1;jettySize=auto;html=1;" edge="1" parent="1" source="Nxzr9lt63k4-66FtO5DA-8" target="Nxzr9lt63k4-66FtO5DA-10">
          <mxGeometry relative="1" as="geometry" />
        </mxCell>
      </root>
    </mxGraphModel>
  </diagram>
</mxfile>
